<?xml version="1.0" encoding="utf-8"?>
<!-- Generator: Adobe Illustrator 16.0.0, SVG Export Plug-In . SVG Version: 6.00 Build 0)  -->
<!DOCTYPE svg PUBLIC "-//W3C//DTD SVG 1.1//EN" "http://www.w3.org/Graphics/SVG/1.1/DTD/svg11.dtd">
<svg version="1.1" id="Layer_1" xmlns="http://www.w3.org/2000/svg" xmlns:xlink="http://www.w3.org/1999/xlink" x="0px" y="0px"
	 width="340.483px" height="152.991px" viewBox="0 0 340.483 152.991" enable-background="new 0 0 340.483 152.991"
	 xml:space="preserve">
<path fill="#D0892A" d="M37.877,45.714L47.783,35c2.73-2.641,4.844-4.597,6.34-5.87c1.496-1.271,3.349-2.625,5.56-4.06
	c3.868-2.609,7.396-3.914,10.583-3.914c2.405,0,3.608,0.896,3.608,2.686c0,1.367-0.325,2.733-0.977,4.101s-1.53,2.605-2.637,3.711
	c-1.985,1.985-5.794,4.687-11.426,8.105c-4.231,2.604-7.552,4.899-9.961,6.884c0.392,2.41,0.823,4.583,1.298,6.519
	c0.473,1.937,1.002,3.646,1.588,5.127c0.585,1.482,1.414,3.265,2.488,5.348c1.201,2.345,2.504,4.493,3.903,6.446
	c3.516,4.752,7.015,7.877,10.498,9.375c1.074,0.521,1.611,0.992,1.611,1.416c0,0.813-0.571,1.709-1.712,2.686
	c-1.5,1.563-3.318,2.767-5.453,3.613c-2.137,0.846-4.297,1.27-6.48,1.27c-3.979,0-7.549-1.047-10.712-3.139
	s-5.583-5.029-7.261-8.813c-1.936-4.272-3.191-9.452-3.766-15.54c-0.128-1.042-0.191-2.197-0.191-3.467H34.49
	c-1.336,1.921-2.297,3.475-2.883,4.663c-0.586,1.188-1.499,3.329-2.736,6.421c-1.466,3.939-2.818,6.975-4.056,9.106
	c-1.238,2.133-2.655,3.866-4.251,5.201c-1.499,1.302-3.161,2.393-4.985,3.271s-3.339,1.318-4.544,1.318
	c-0.88,0-1.613-0.334-2.199-1.002c-0.587-0.666-0.88-1.473-0.88-2.416c0-0.586,0.032-1.042,0.098-1.367
	c1.53-6.152,3.198-12.395,5.005-18.726c1.807-6.331,3.654-12.305,5.542-17.92c1.888-5.615,3.631-10.376,5.229-14.282
	s2.836-6.396,3.717-7.471c1.044-1.204,2.593-2.189,4.646-2.954c2.054-0.765,4.19-1.147,6.407-1.147c2.021,0,3.456,0.27,4.304,0.808
	s1.272,1.427,1.272,2.667c0,1.697-1.727,7.305-5.176,16.827c-0.229,0.685-0.611,1.753-1.148,3.204s-0.92,2.519-1.146,3.204
	l0.195,0.244L37.877,45.714z"/>
<path d="M84.363,88.148c-1.464-0.098-2.797-0.766-4-2.002c-1.203-1.303-2.057-2.711-2.561-4.225
	c-0.503-1.514-0.755-3.475-0.755-5.883c0-5.371,1.001-11.434,3.003-18.189c2.002-6.754,4.271-11.646,6.811-14.673
	c1.009-1.27,2.408-1.904,4.197-1.904c1.889,0,3.41,0.863,4.564,2.588c1.155,1.725,1.733,3.987,1.733,6.786
	c0,4.134-0.596,8.976-1.786,14.525c-1.189,5.55-2.861,11.319-5.015,17.309c-0.845,2.41-1.886,4.039-3.121,4.885
	c-0.845,0.521-1.837,0.783-2.975,0.783H84.363z M90.231,39.076c-3.06-0.098-4.59-1.937-4.59-5.518c0-1.79,0.447-3.865,1.343-6.226
	c0.895-2.36,1.912-4.109,3.052-5.249c0.586-0.618,1.18-1.058,1.782-1.318c0.602-0.26,1.375-0.391,2.319-0.391
	c1.628,0,2.823,0.399,3.589,1.196c0.765,0.798,1.147,2.124,1.147,3.979c0,2.312-0.399,4.5-1.196,6.567
	c-0.798,2.067-1.863,3.744-3.198,5.029c-1.335,1.286-2.702,1.929-4.102,1.929H90.231z"/>
<path d="M111.472,40.443l0.195-0.586c2.151-6.055,4.009-10.319,5.573-12.793c0.749-1.172,1.792-2.213,3.129-3.125
	c2.51-1.595,4.872-2.393,7.088-2.393c1.304,0,2.298,0.294,2.982,0.88c0.684,0.587,1.026,1.435,1.026,2.542
	c0,0.75-0.491,2.278-1.474,4.585c-1.671,3.841-2.916,7.437-3.734,10.789c0.555,0.066,1.092,0.164,1.613,0.293
	c1.956,0.293,3.243,0.627,3.863,1.002c0.619,0.375,0.929,1.05,0.929,2.026c0,1.726-0.439,3.322-1.317,4.787
	c-0.879,1.466-2.033,2.541-3.465,3.224c-1.073,0.488-2.813,0.814-5.221,0.977c-0.419,1.271-0.886,3.013-1.4,5.228
	c-0.289,1.955-0.611,4.658-0.965,8.109C120.098,67.257,120,68.444,120,69.55c0,5.139,2.49,7.709,7.473,7.709h0.293h0.146
	c0.586,0,0.879,0.098,0.879,0.293c0,0.521-0.555,1.399-1.66,2.637c-1.107,1.236-2.328,2.327-3.662,3.271
	c-1.434,0.977-2.996,1.758-4.691,2.344s-3.229,0.879-4.598,0.879c-3.426,0-6.205-1.156-8.342-3.467
	c-2.137-2.312-3.204-5.371-3.204-9.18c0-1.628,0.284-3.76,0.854-6.397c0.569-2.637,1.457-6.168,2.661-10.596
	c0.195-0.781,0.407-1.603,0.635-2.466c0.228-0.862,0.358-1.375,0.391-1.538c-1.302-0.032-2.229-0.309-2.783-0.83
	c-0.554-0.521-0.83-1.367-0.83-2.539c0-2.051,0.789-3.987,2.368-5.811C107.508,42.038,109.355,40.899,111.472,40.443z"/>
<path d="M163.376,40.541c2.474,0.098,4.443,0.814,5.908,2.148c1.465,1.335,2.197,3.125,2.197,5.371c0,1.953-0.562,3.923-1.685,5.908
	c-1.123,1.986-2.539,3.613-4.248,4.883s-3.426,1.904-5.151,1.904c-1.009,0-1.514-0.358-1.514-1.074c0-0.26,0.195-0.83,0.586-1.709
	c1.27-2.148,1.904-4.622,1.904-7.422c0-1.399-0.163-2.1-0.488-2.1c-0.456,0-1.106,0.586-1.953,1.758s-1.563,2.556-2.148,4.15
	c-1.009,2.507-1.848,5.176-2.515,8.008c-0.668,2.832-1.001,5.225-1.001,7.178c0,2.213,0.333,3.956,1.001,5.225
	c0.667,1.27,1.604,1.904,2.808,1.904c1.106,0,2.588-0.586,4.443-1.758s3.613-2.621,5.273-4.346c0.684-0.879,1.286-1.319,1.807-1.319
	c0.781,0,1.172,0.439,1.172,1.319c0,4.004-1.563,7.633-4.688,10.889c-2.148,2.148-4.614,3.881-7.397,5.199s-5.281,1.979-7.495,1.979
	c-3.874,0-7.097-1.221-9.668-3.662s-3.857-5.518-3.857-9.229s0.821-7.609,2.466-11.695c1.644-4.085,3.89-7.967,6.738-11.646
	c2.848-3.678,6.079-6.754,9.692-9.229c2.604-1.758,5.144-2.637,7.617-2.637H163.376z"/>
<path d="M207.956,28.138v-0.781c0-1.204-0.162-1.807-0.488-1.807c-0.422,0-1.082,0.651-1.977,1.953
	c-0.896,1.302-1.702,2.751-2.417,4.346c-1.79,4.069-3.369,8.374-4.736,12.915s-2.425,9.074-3.174,13.599
	c-0.261,1.758-0.537,3.662-0.83,5.713l0.244,0.195c3.255-3.353,5.681-5.729,7.275-7.129c1.595-1.399,3.662-2.995,6.201-4.785
	c3.191-2.213,5.828-3.32,7.91-3.32c1.336,0,2.369,0.48,3.102,1.44c0.732,0.96,1.098,2.287,1.098,3.979
	c0,0.977-0.195,2.376-0.586,4.199c-0.684,3.841-1.025,7.08-1.025,9.717c0,1.205,0.098,2.474,0.293,3.809
	c0.164,1.041,0.701,3.141,1.611,6.299c0.75,2.408,1.123,3.743,1.123,4.004c0,0.455-0.537,1.009-1.611,1.66
	c-3.449,2.278-6.623,3.418-9.521,3.418c-2.375,0-4.305-1.157-5.785-3.471c-1.482-2.313-2.222-5.328-2.222-9.043
	c0-1.467,0.146-3.243,0.439-5.329l-0.244-0.195c-4.622,4.765-7.714,7.978-9.274,9.642c-5.796,5.598-10.256,8.396-13.381,8.396
	c-1.434,0-2.613-0.953-3.541-2.857s-1.392-4.386-1.392-7.445c0-6.576,2.034-14.974,6.104-25.196
	c1.628-3.971,3.353-7.771,5.176-11.401c1.823-3.629,3.564-6.763,5.225-9.399c1.204-1.855,2.466-3.475,3.784-4.858
	c1.318-1.383,2.652-2.539,4.004-3.467c1.351-0.928,2.727-1.619,4.126-2.075c1.4-0.456,2.8-0.684,4.199-0.684
	c3.484,0,6.324,1.074,8.521,3.223s3.295,4.899,3.295,8.252c0,2.344-0.666,4.834-2.002,7.471c-1.334,2.637-3.205,5.144-5.615,7.52
	c-1.529,1.498-3.264,2.824-5.199,3.979c-1.938,1.156-3.443,1.733-4.517,1.733c-0.325,0-0.618-0.114-0.879-0.342
	c-0.261-0.228-0.391-0.521-0.391-0.879c0-0.488,0.423-1.546,1.27-3.174c0.977-1.79,1.937-3.979,2.88-6.567
	c0.945-2.588,1.668-5.045,2.174-7.373C207.704,31.695,207.956,29.733,207.956,28.138z"/>
<path d="M242.038,74.037c0.359,1.953,1.629,2.93,3.809,2.93c2.441,0,5.615-1.433,9.521-4.297c2.279-1.66,3.809-2.49,4.59-2.49
	c0.977,0,1.889,0.26,2.734,0.781c0.848,0.521,1.27,1.058,1.27,1.611c0,0.586-0.471,1.351-1.416,2.295
	c-1.725,1.725-3.711,3.41-5.957,5.053c-2.246,1.645-4.41,3.012-6.494,4.102c-2.082,1.092-4.166,1.953-6.25,2.588
	c-2.082,0.635-3.938,0.953-5.566,0.953c-4.068,0-7.324-1.164-9.766-3.492c-2.441-2.326-3.662-5.428-3.662-9.301
	c0-2.963,0.643-6.307,1.93-10.035c1.285-3.727,3.02-7.218,5.199-10.474c2.572-3.809,5.73-6.982,9.473-9.521
	c4.623-3.06,9.051-4.59,13.281-4.59c3.061,0,5.461,0.969,7.203,2.905c1.74,1.937,2.611,4.598,2.611,7.983
	c0,2.637-0.691,5.388-2.074,8.252c-1.385,2.865-3.426,5.615-6.129,8.252c-2.213,2.214-4.387,3.939-6.518,5.176
	c-2.133,1.236-3.996,1.855-5.592,1.855C243.52,74.574,242.788,74.395,242.038,74.037z M241.94,72.475
	c1.498-1.01,2.637-2.019,3.418-3.028c1.727-2.116,3.061-4.541,4.004-7.275c0.75-1.79,1.336-3.792,1.758-6.006
	c0.424-2.213,0.635-4.28,0.635-6.201c0-1.79-0.373-2.686-1.123-2.686c-1.041,0-2.637,2.295-4.785,6.885
	c-1.27,2.767-2.303,5.526-3.1,8.276c-0.799,2.751-1.197,5.119-1.197,7.104C241.549,70.229,241.68,71.205,241.94,72.475z"/>
<path d="M288.7,61.914l2.943-3.427c2.975-3.297,5.334-5.753,7.074-7.367c1.738-1.614,3.301-2.78,4.682-3.497
	c1.383-0.717,2.789-1.077,4.221-1.077c2.309,0,3.936,0.619,4.879,1.855c0.941,1.237,1.414,3.386,1.414,6.445
	c0,1.27-0.131,3.142-0.391,5.615c-0.391,3.288-0.586,6.38-0.586,9.277c0,3.255,0.162,5.892,0.488,7.911
	c0.229,1.236,0.57,2.474,1.025,3.711c0.326,1.172,0.488,1.969,0.488,2.393c0,0.521-0.195,0.928-0.586,1.221
	c-1.01,0.879-2.344,1.644-4.004,2.295c-1.66,0.65-3.061,0.977-4.199,0.977c-1.855,0-3.539-0.635-5.053-1.904
	s-2.686-3.027-3.516-5.273s-1.246-4.785-1.246-7.617c0-1.889,0.195-4.118,0.586-6.69l-0.195-0.195c-1.4,1.563-2.531,2.8-3.393,3.711
	c-0.863,0.911-1.67,1.773-2.418,2.588c-3.646,4.166-6.738,7.926-9.277,11.279c-0.977,1.302-1.871,2.441-2.686,3.418
	c-1.205,1.203-2.572,1.807-4.102,1.807c-2.084,0-3.775-0.781-5.078-2.344s-1.953-3.581-1.953-6.055c0-1.53,0.18-3.402,0.537-5.615
	c0.357-2.214,0.838-4.582,1.441-7.105c0.602-2.522,1.318-5.119,2.148-7.788c0.83-2.669,1.732-5.208,2.709-7.617
	c1.498-4.004,3.32-7.129,5.471-9.375c1.465-1.465,3.238-2.197,5.322-2.197c3.385,0,5.078,2.197,5.078,6.592
	c0,3.223-0.674,7.841-2.021,13.854L288.7,61.914z"/>
<path fill="#D0892A" d="M139.621,121.404h-0.146c-1.881,3.662-3.836,7.02-5.863,10.071c-2.419,3.613-4.459,6.286-6.12,8.021
	c-0.904,0.854-2.028,1.605-3.372,2.252s-2.504,0.971-3.481,0.971c-0.245,0-0.568-0.08-0.972-0.238
	c-0.402-0.158-0.727-0.385-0.971-0.678c-1.246-1.342-2.248-4.791-3.006-10.346c-0.757-5.554-1.135-12.299-1.135-20.232
	c0-6.445,0.476-10.73,1.428-12.854c0.391-0.903,0.952-1.647,1.685-2.233s1.818-1.16,3.259-1.722c1.27-0.513,2.582-0.939,3.938-1.282
	c1.355-0.342,2.422-0.512,3.204-0.512c0.683,0,1.228,0.17,1.63,0.512c0.402,0.343,0.604,0.818,0.604,1.429
	c0,0.244-0.049,0.573-0.146,0.989c-0.512,2.27-0.988,5.469-1.428,9.594c-0.317,2.734-0.537,4.957-0.659,6.666
	s-0.232,4.041-0.329,6.994c-0.098,2.954-0.16,5.872-0.184,8.752l0.146,0.146c1.1-1.415,2.273-3.112,3.52-5.09
	c0.439-0.732,0.868-1.416,1.283-2.051c0.416-0.635,0.868-1.379,1.357-2.234c1.124-2.001,2.127-3.955,3.006-5.859
	c0.439-0.879,0.832-1.77,1.174-2.673c3.666-8.153,6.246-12.878,7.736-14.173c0.685-0.609,1.938-1.189,3.759-1.739
	c1.82-0.549,3.452-0.823,4.895-0.823c0.929,0,1.698,0.213,2.31,0.641s0.917,0.994,0.917,1.703c0,0.635-0.329,1.904-0.989,3.809
	c-1.27,3.686-2.301,7.715-3.094,12.084c-0.794,4.371-1.19,8.265-1.19,11.683c0,6.958,1.35,10.437,4.051,10.437
	c0.778,0,1.568-0.586,2.371-1.758s1.49-2.66,2.062-4.467c0.572-1.807,1.046-3.912,1.424-6.317c0.377-2.405,0.566-4.876,0.566-7.416
	c0-1.514-0.073-3.308-0.22-5.384c-0.05-0.561-0.073-1.086-0.073-1.574c0-2.686,1.477-5.396,4.432-8.13
	c1.439-1.392,2.514-2.087,3.223-2.087c1.684,0,2.526,3.174,2.526,9.521c0,4.517-0.488,8.838-1.464,12.963
	c-1.221,4.957-2.904,9.168-5.051,12.635c-1.123,1.881-2.459,3.687-4.008,5.42c-1.55,1.734-3.081,3.125-4.594,4.175
	c-1.928,1.343-3.978,2.015-6.148,2.015c-4.002,0-6.979-1.557-8.932-4.67c-1.951-3.112-2.928-7.928-2.928-14.447V121.404z"/>
<path d="M199.918,106.17c3.638,0,5.458,0.428,5.458,1.282c0,0.977-0.818,1.501-2.455,1.575c-1.978,0.122-3.821,0.684-5.53,1.684
	c-1.709,1.002-3.229,2.369-4.559,4.102c-1.331,1.734-2.369,3.688-3.113,5.859c-0.744,2.174-1.117,4.469-1.117,6.885
	c0,2.662,0.623,4.805,1.868,6.428s2.868,2.436,4.87,2.436c1.855,0,3.479-0.953,4.871-2.857s2.088-4.125,2.088-6.664
	c0-2.075-0.434-4.022-1.301-5.842c-0.867-1.818-2.13-3.351-3.79-4.596c-0.708-0.562-1.062-0.965-1.062-1.209
	c0-0.342,0.5-0.865,1.501-1.574c1.122-0.756,2.38-1.392,3.772-1.904c1.391-0.513,2.563-0.77,3.516-0.77
	c1.098,0,2.143,0.287,3.131,0.861s1.861,1.392,2.617,2.453c0.758,1.063,1.338,2.283,1.74,3.662c0.402,1.38,0.604,2.852,0.604,4.413
	c0,2.588-0.488,5.146-1.465,7.672c-0.977,2.527-2.258,4.572-3.844,6.134c-2.051,1.979-4.524,3.596-7.417,4.853
	c-2.893,1.258-5.646,1.886-8.258,1.886c-2.54,0-5.061-0.439-7.563-1.318c-2.503-0.879-4.486-2.037-5.951-3.479
	c-1.953-1.953-2.93-4.725-2.93-8.313c0-2.832,0.695-5.664,2.088-8.496c1.391-2.832,3.277-5.402,5.658-7.709
	c2.379-2.308,5.004-4.126,7.873-5.457C194.089,106.836,196.988,106.17,199.918,106.17z"/>
<path d="M227.42,131.842l-0.146,0.732c0,0.416-0.049,1.014-0.146,1.795c-0.098,1.195-0.232,2.173-0.402,2.93
	c-0.172,0.756-0.428,1.385-0.77,1.886s-0.805,1.031-1.391,1.593c-1.783,1.636-3.578,2.453-5.385,2.453
	c-1.465,0-2.545-0.536-3.24-1.611c-0.695-1.074-1.043-2.807-1.043-5.199c0-1.904,0.213-4.254,0.641-7.05
	c0.426-2.796,0.945-5.304,1.557-7.526l0.293-0.951c0-0.146,0.072-0.452,0.219-0.916c0.902-3.32,1.734-5.779,2.49-7.379
	s1.672-2.887,2.746-3.863c0.953-0.757,2.027-1.136,3.223-1.136c1.734,0,2.783,1.05,3.15,3.149c0.342-0.293,0.672-0.635,0.988-1.025
	c0.709-0.854,1.258-1.422,1.648-1.703c0.391-0.28,0.842-0.421,1.355-0.421c2.1,0,3.148,2.075,3.148,6.226
	c0,2.271-0.244,4.468-0.732,6.592s-1.105,3.857-1.85,5.2s-1.482,2.015-2.215,2.015c-0.807,0-1.209-1.525-1.209-4.578
	c0-1.611-0.092-2.875-0.273-3.79c-0.184-0.916-0.471-1.63-0.861-2.143c-0.732,1.368-1.209,4.492-1.428,9.375
	C227.616,129.328,227.495,131.109,227.42,131.842z"/>
<path d="M259.098,115.619c0.977-2.76,1.795-5.646,2.453-8.661c0.66-3.015,0.988-5.329,0.988-6.94c0-0.439-0.121-0.658-0.365-0.658
	c-0.391,0-1.074,0.873-2.051,2.618s-1.795,3.521-2.453,5.328c-1.416,3.979-2.51,7.282-3.277,9.906
	c-0.77,2.624-1.301,4.828-1.594,6.61c-0.293,1.781-0.439,3.602-0.439,5.456c0,1.587,0.176,2.747,0.531,3.479
	c0.354,0.732,0.92,1.098,1.703,1.098c1.342,0,2.844-0.592,4.504-1.775s3.162-2.74,4.504-4.67c1.049-1.439,1.867-2.16,2.453-2.16
	c0.758,0,1.137,0.599,1.137,1.795c0,2.612-0.818,5.163-2.455,7.653c-1.635,2.49-3.74,4.511-6.316,6.061
	c-2.576,1.551-5.207,2.325-7.893,2.325c-3.295,0-5.98-1.037-8.057-3.112c-2.074-2.075-3.111-4.784-3.111-8.13
	c0-2.734,0.586-5.938,1.758-9.613c1.172-3.674,2.74-7.373,4.705-11.096s4.119-7.099,6.463-10.126
	c2.344-3.026,4.664-5.347,6.959-6.958c1.416-1.049,2.99-1.574,4.725-1.574c1.318,0,2.514,0.408,3.588,1.227s1.904,1.959,2.49,3.424
	s0.879,3.089,0.879,4.871c0,3.832-0.75,7.58-2.252,11.242s-3.596,6.836-6.281,9.521c-1.27,1.295-2.49,2.307-3.662,3.039
	s-2.197,1.1-3.076,1.1c-0.854,0-1.281-0.33-1.281-0.989c0-0.366,0.316-1.062,0.953-2.087c0.854-1.343,1.854-3.369,3.002-6.08
	c0.098-0.268,0.207-0.555,0.33-0.86C258.78,116.577,258.926,116.156,259.098,115.619z"/>
<path d="M298.1,109.503l0.365-1.501c0.756-3.346,1.441-6.049,2.051-8.112c0.609-2.063,1.238-3.809,1.887-5.236
	c0.646-1.429,1.287-2.46,1.922-3.095c1.025-1.099,2.869-1.648,5.529-1.648c1.172,0,2.045,0.062,2.619,0.184
	c0.574,0.123,1.031,0.342,1.373,0.659c-1.172,3.638-1.984,6.366-2.436,8.185c-0.451,1.819-0.945,4.316-1.482,7.489
	c-0.83,5.177-1.246,9.851-1.246,14.026c0,2.759,0.227,5.621,0.678,8.587c0.451,2.967,1.191,6.269,2.217,9.906
	c-1.295,0.903-2.533,1.673-3.717,2.308c-1.186,0.635-2.309,1.135-3.369,1.501c-1.063,0.366-1.996,0.55-2.803,0.55
	c-1.416,0-2.416-0.696-3.002-2.088c-0.49-1.147-0.807-2.069-0.953-2.765c-0.146-0.696-0.402-2.631-0.77-5.805
	c-3.271,3.419-6.402,6.11-9.393,8.075s-5.377,2.947-7.16,2.947c-2.051,0-3.729-0.836-5.035-2.508s-1.959-3.827-1.959-6.464
	c0-2.368,0.506-4.999,1.52-7.892c1.014-2.894,2.412-5.695,4.193-8.404c1.172-1.782,2.375-3.29,3.607-4.523
	c1.232-1.232,2.631-2.374,4.193-3.424c2.832-1.855,5.199-2.783,7.104-2.783C294.961,107.672,296.317,108.282,298.1,109.503z
	 M296.963,126.898v-2.125c-1.244,1.1-2.172,1.648-2.783,1.648c-0.342,0-0.512-0.17-0.512-0.513c0-0.146,0.072-0.452,0.219-0.915
	c0.514-1.465,0.77-2.881,0.77-4.248c0-1.979-0.428-4.029-1.281-6.152c-0.367-1.1-0.818-1.648-1.355-1.648
	c-0.27,0-0.488,0.123-0.658,0.366c-0.807,0.929-1.576,2.24-2.309,3.937c-0.732,1.697-1.336,3.541-1.813,5.53
	c-0.475,1.989-0.713,3.753-0.713,5.292c0,2.905,0.879,4.357,2.637,4.357c0.879,0,2.057-0.519,3.533-1.557
	C294.174,129.834,295.596,128.51,296.963,126.898z"/>
</svg>
